<svg xmlns="http://www.w3.org/2000/svg" width="35.53" height="35.531" viewBox="0 0 35.53 35.531">
  <g id="facebook" transform="translate(0 0)">
    <path id="Path_16" data-name="Path 16" d="M2190.088,3050.114a17.766,17.766,0,1,0,17.765,17.765A17.765,17.765,0,0,0,2190.088,3050.114Zm5.7,10.311c-.656,0-1.311-.012-1.966,0a4.63,4.63,0,0,0-.89.1,1.244,1.244,0,0,0-1,1.051,3.694,3.694,0,0,0-.073.685c-.009.838,0,1.677,0,2.515,0,.025,0,.05.005.088h3.767c.158,0,.161,0,.141.151-.085.659-.174,1.318-.259,1.978-.07.551-.14,1.1-.205,1.653-.025.21-.02.211-.231.211h-3.219v.159q0,4.9,0,9.808c0,.081,0,.161,0,.241H2187.7c0-.055.005-.109.005-.164q0-4.959,0-9.919v-.126h-3.3c-.147,0-.147,0-.147-.141q0-1.856,0-3.712c0-.114.034-.142.143-.141,1.055,0,2.109,0,3.164,0h.148v-.119c0-1.029-.006-2.058.008-3.086a5.614,5.614,0,0,1,.533-2.38,4.317,4.317,0,0,1,2.305-2.182,5.436,5.436,0,0,1,2.185-.415c.863.013,1.726.052,2.589.083.161.006.32.032.48.041.09,0,.119.038.119.127,0,.513,0,1.026,0,1.538,0,.6,0,1.208,0,1.812C2195.927,3060.394,2195.9,3060.426,2195.791,3060.425Z" transform="translate(-2172.323 -3050.114)" fill="#fff"/>
  </g>
</svg>
