<svg xmlns="http://www.w3.org/2000/svg" width="35.531" height="35.531" viewBox="0 0 35.531 35.531">
  <g id="instagram" transform="translate(0 0)">
    <circle id="Ellipse_2" data-name="Ellipse 2" cx="3.816" cy="3.816" r="3.816" transform="translate(13.954 13.87)" fill="#fff"/>
    <path id="Path_14" data-name="Path 14" d="M2408.827,3081.806h-8.85a4.547,4.547,0,0,0-4.53,4.53v9.43a4.548,4.548,0,0,0,4.53,4.53h8.85a4.548,4.548,0,0,0,4.53-4.53v-9.43a4.547,4.547,0,0,0-4.53-4.53Zm-4.392,14.989a5.828,5.828,0,1,1,5.828-5.828A5.828,5.828,0,0,1,2404.435,3096.8Zm5.922-10.367a1.38,1.38,0,1,1,1.38-1.38A1.38,1.38,0,0,1,2410.356,3086.428Z" transform="translate(-2386.637 -3073.286)" fill="#fff"/>
    <path id="Path_15" data-name="Path 15" d="M2380.441,3050.115a17.766,17.766,0,1,0,17.766,17.765A17.765,17.765,0,0,0,2380.441,3050.115Zm10.583,22.481a6.176,6.176,0,0,1-6.157,6.157h-8.85a6.175,6.175,0,0,1-6.157-6.157v-9.43a6.175,6.175,0,0,1,6.157-6.157h8.85a6.176,6.176,0,0,1,6.157,6.157Z" transform="translate(-2362.676 -3050.115)" fill="#fff"/>
  </g>
</svg>
