<svg xmlns="http://www.w3.org/2000/svg" width="35.53" height="35.531" viewBox="0 0 35.53 35.531">
  <g id="tiktok" transform="translate(0 0)">
    <g id="Group_13" data-name="Group 13" transform="translate(0 0)">
      <path id="Path_12" data-name="Path 12" d="M2621.339,3087.184h0Z" transform="translate(-2597.015 -3077.218)" fill="#333"/>
      <path id="Path_13" data-name="Path 13" d="M2548.625,3050.115h0a17.765,17.765,0,0,0-17.765,17.765h0a17.766,17.766,0,0,0,17.765,17.766h0a17.766,17.766,0,0,0,17.765-17.766h0A17.765,17.765,0,0,0,2548.625,3050.115Zm10.463,13v2.555a7.6,7.6,0,0,1-5.785-1.829v8.551a7.7,7.7,0,0,1-5.919,7.345,7.266,7.266,0,0,1-6.851-1.912h0c-1.031-.721-3.9-5.17-1.321-9.449a7.387,7.387,0,0,1,7.539-3.726v1.446s-.124.006-.008,0h.008v2.893h0a3.952,3.952,0,0,0-1.083-.069h-.008a3.15,3.15,0,0,0-2.639,1.448,3.25,3.25,0,0,0-.59,2.4,3.652,3.652,0,0,0,1.428,2.391h0a3.478,3.478,0,0,0,5.381-2.914c0-.211-.021-16.443-.021-16.443h4.127a6.719,6.719,0,0,0,.212,1.659h0a6.106,6.106,0,0,0,1.231,2.253,3.111,3.111,0,0,0,.279.26c.034.028.069.055.1.081l0,0h0a5.625,5.625,0,0,0,3.913,1.528Z" transform="translate(-2530.86 -3050.115)" fill="#fff"/>
    </g>
  </g>
</svg>
