<svg xmlns="http://www.w3.org/2000/svg" width="35.531" height="35.531" viewBox="0 0 35.531 35.531">
  <path id="twitter" d="M17.766,0A17.766,17.766,0,1,0,35.531,17.764,17.766,17.766,0,0,0,17.766,0m8.9,13.2q.013.3.013.594a13.061,13.061,0,0,1-20.107,11,9.329,9.329,0,0,0,1.1.064,9.215,9.215,0,0,0,5.7-1.966,4.6,4.6,0,0,1-4.29-3.189,4.6,4.6,0,0,0,2.074-.079,4.6,4.6,0,0,1-3.684-4.5c0-.02,0-.039,0-.058a4.573,4.573,0,0,0,2.08.574A4.6,4.6,0,0,1,8.132,9.509a13.037,13.037,0,0,0,9.466,4.8,4.6,4.6,0,0,1,7.826-4.189A9.194,9.194,0,0,0,28.34,9a4.608,4.608,0,0,1-2.019,2.541,9.181,9.181,0,0,0,2.638-.723A9.327,9.327,0,0,1,26.666,13.2" transform="translate(0 0.001)" fill="#fff"/>
</svg>
