<svg xmlns="http://www.w3.org/2000/svg" width="35.531" height="35.531" viewBox="0 0 35.531 35.531">
  <g id="youtube" transform="translate(0)">
    <path id="Path_17" data-name="Path 17" d="M2716.808,3049.8a17.765,17.765,0,1,0,17.766,17.766A17.765,17.765,0,0,0,2716.808,3049.8Zm11.183,18.58c-.034,2.52-.265,5.052-1.3,5.988-.4.361-.777.588-2.291.729-1.894.176-4.46.2-6.4.2q-1.2,0-2.4,0c-1.939,0-4.505-.028-6.4-.2-1.514-.141-1.893-.368-2.291-.729-1.041-.943-1.267-3.511-1.3-6.053q-.008-.716,0-1.433c.028-2.562.249-5.166,1.3-6.117.4-.361.776-.588,2.291-.729,1.894-.176,4.46-.2,6.4-.2q1.2,0,2.4,0c1.939,0,4.5.028,6.4.2,1.514.141,1.892.367,2.291.729,1.031.935,1.262,3.467,1.3,5.987Q2728,3067.567,2727.991,3068.382Z" transform="translate(-2699.043 -3049.802)" fill="#fff"/>
    <path id="Path_18" data-name="Path 18" d="M2756.963,3110.556l5.647-3.422-5.647-3.218Z" transform="translate(-2741.392 -3089.368)" fill="#fff"/>
  </g>
</svg>
